<svg width="34" height="34" viewBox="0 0 34 34" fill="none" xmlns="http://www.w3.org/2000/svg">
  <symbol id="partner-1">
    <path fill-rule="evenodd" clip-rule="evenodd" d="M0 0H34V34H0V0ZM10.144 21.98C10.144 22.525 10.699 22.757 11.1 22.757C11.365 22.757 11.615 22.665 11.712 22.597C11.509 22.378 10.545 21.296 10.545 21.296C10.353 21.428 10.145 21.661 10.145 21.98H10.144ZM13.607 21.475C13.607 21.814 13.577 22.25 13.373 22.607L14.49 23.851H12.848L12.588 23.569C12.218 23.815 11.693 23.969 11.136 23.969C9.512 23.969 8.592 23.194 8.592 22.022C8.592 21.18 9.136 20.655 9.66 20.41C9.266 20.046 9.18 19.64 9.18 19.38C9.18 18.452 9.932 17.837 11.103 17.837C12.183 17.837 12.957 18.409 12.957 19.343V19.713H11.552V19.429C11.552 19.193 11.407 19.024 11.136 19.024C10.884 19.024 10.716 19.176 10.716 19.403C10.716 19.597 10.802 19.723 10.934 19.887L12.303 21.417V20.555H13.607V21.475ZM17.668 20.843C18.108 20.843 18.35 20.55 18.35 20.144C18.35 19.705 18.116 19.43 17.668 19.43H16.775V20.843H17.668ZM17.306 22.303H16.775V23.851H14.93V17.955H17.878C19.378 17.955 20.195 18.848 20.195 20.135C20.195 20.98 19.816 21.627 19.184 21.99L20.354 23.851H18.207L17.307 22.303H17.306ZM4.386 17.955H2.54V23.851H4.386V21.738H5.902V23.851H7.747V17.955H5.902V20.052H4.386V17.955ZM5.524 30.05C5.817 30.05 5.987 29.832 5.987 29.548C5.987 29.285 5.807 29.06 5.514 29.06H4.289V30.05H5.524ZM5.158 27.808C5.448 27.808 5.604 27.598 5.604 27.316C5.604 27.061 5.43 26.861 5.158 26.861H4.303V27.808H5.158ZM2.548 25.507H5.605C6.709 25.507 7.357 26.147 7.357 27.031C7.357 27.629 7.07 28.119 6.584 28.354C7.29 28.513 7.72 28.993 7.72 29.728C7.72 30.722 6.996 31.404 5.648 31.404H2.548V25.507ZM10.321 25.507H8.478V31.404H12.715V29.872H10.32V25.507H10.321ZM16.981 28.936V27.976C16.981 27.293 16.636 26.923 16.011 26.923C15.388 26.923 15.042 27.293 15.042 27.976V28.936C15.042 29.617 15.388 29.989 16.011 29.989C16.636 29.989 16.981 29.617 16.981 28.936ZM13.197 28.826V28.086C13.197 26.485 14.167 25.389 16.011 25.389C17.857 25.389 18.826 26.485 18.826 28.086V28.826C18.826 30.428 17.856 31.522 16.011 31.522C14.167 31.522 13.197 30.429 13.197 28.827V28.826ZM23.161 29.114C23.127 29.544 22.891 29.989 22.243 29.989C21.611 29.989 21.309 29.576 21.309 28.927V27.985C21.309 27.336 21.611 26.923 22.243 26.923C22.891 26.923 23.127 27.369 23.161 27.8H24.905C24.864 26.468 23.937 25.389 22.277 25.389C20.373 25.389 19.465 26.468 19.465 28.069V28.844C19.465 30.444 20.374 31.522 22.277 31.522C23.937 31.522 24.864 30.443 24.905 29.115H23.16L23.161 29.114ZM25.913 25.507H27.757V27.559H27.873L29.072 25.507H31.141L29.595 28.167L31.315 31.404H29.121L27.904 28.948H27.757V31.404H25.913V25.507ZM32.043 25.793C32.043 25.821 32.025 25.84 31.993 25.84H31.953V25.75H31.993C32.025 25.75 32.043 25.768 32.043 25.793ZM31.953 25.941H31.98L32.038 26.055H32.191L32.111 25.915C32.1306 25.9013 32.1465 25.8831 32.1573 25.8618C32.1681 25.8405 32.1735 25.8169 32.173 25.793C32.173 25.701 32.118 25.643 32.01 25.643H31.821V26.055H31.952V25.941H31.953ZM31.985 25.479C32.228 25.479 32.368 25.645 32.368 25.864C32.368 26.079 32.228 26.248 31.985 26.248C31.743 26.248 31.603 26.078 31.603 25.864C31.603 25.645 31.743 25.479 31.985 25.479ZM31.985 25.389C31.9211 25.3858 31.8572 25.3958 31.7973 25.4184C31.7374 25.441 31.6828 25.4756 31.6369 25.5201C31.5909 25.5647 31.5546 25.6182 31.5302 25.6773C31.5058 25.7365 31.4938 25.8 31.495 25.864C31.495 26.122 31.684 26.338 31.985 26.338C32.285 26.338 32.475 26.122 32.475 25.864C32.4762 25.8 32.4642 25.7365 32.4398 25.6773C32.4154 25.6182 32.3791 25.5647 32.3331 25.5201C32.2872 25.4756 32.2326 25.441 32.1727 25.4184C32.1128 25.3958 32.0489 25.3858 31.985 25.389Z" fill="#001A3A"/>
  </symbol>

  <!-- <symbol id="partner-2">
    <path d="M29.503 5.62697C29.597 5.39697 29.409 5.17897 29.409 5.17897C29.409 5.17897 27.932 2.65697 22.738 2.08797C19.946 1.78997 16.16 2.35897 13.503 3.80997C8.67099 6.42697 7.94599 10.752 7.94599 10.752C7.91899 10.861 7.87899 11.186 7.98599 11.322C8.09299 11.457 8.25399 11.457 8.45599 11.39C10.16 10.807 15.221 9.11197 18.416 8.25697C22.966 7.03697 26.711 6.29097 29.1 5.88497C29.288 5.84397 29.436 5.78997 29.503 5.62697Z" fill="#001A3A"/>
    <path d="M34.698 25.993C31.973 32.176 26.752 36.475 19.893 36.569C14.913 36.637 10.51 34.915 7.329 31.905L5.409 32.732V29.722C3.315 26.875 2.094 23.254 2.094 19.159C2.094 8.651 10.054 0.38 21.168 0.38C22.98 0.38 24.618 0.665 25.852 0.95C23.946 0.34 22.054 0 19.946 0C8.026 0 0 9.763 0 19.837C0 30.807 8.523 40 19.705 40C30.389 40 36.148 32.393 38 27.81L34.698 25.993Z" fill="#001A3A"/>
    <path d="M31.933 23.8229C33.503 23.6469 34.59 23.0089 35.181 22.4129C35.718 21.8709 35.851 21.1389 35.851 20.5829C35.879 19.7689 35.851 17.2199 35.851 17.2199L31.704 18.1289V19.1049C31.718 19.7549 32.027 20.1079 32.698 19.9859C32.912 19.9459 33.234 19.8499 33.234 19.8499V20.6499C33.234 20.6229 33.302 21.0979 32.254 21.3009C30.886 21.5179 30.268 20.6639 30.254 19.1589C30.282 17.5459 31.181 16.6239 32.282 16.3659C33.516 16.0809 34.214 16.3799 34.617 16.4339C35.986 16.6369 36.375 14.5629 35.127 14.0739C34.201 13.6949 33.007 13.6269 31.865 13.8579C30.335 14.1689 27.342 15.4579 27.329 19.6479C27.315 22.9819 29.745 24.0679 31.933 23.8229ZM18.443 27.3889C18.443 27.3889 19.718 26.9419 19.825 26.9139C20.845 26.5619 21.221 25.9379 21.221 24.8809C21.208 23.7279 21.208 21.4769 21.208 21.4769L24.174 24.9209C24.657 25.4229 25.261 25.4639 25.812 25.3009C26.375 25.1379 26.858 24.6099 26.872 23.8639V15.3079C26.872 15.3079 26.107 15.4709 25.476 15.6479C24.751 15.8509 24.188 16.3249 24.188 17.5729V20.5419C24.188 20.5419 22.496 18.4129 21.409 17.3149C20.832 16.7319 19.866 17.0849 19.866 17.0849L18.443 17.5179V27.3879V27.3889ZM17.543 17.7359C17.543 17.7359 16.657 17.9929 15.933 18.2639C14.993 18.6039 14.443 19.1589 14.443 20.5959V28.7999C14.443 28.7999 15.262 28.5159 16.04 28.2169C17.127 27.7969 17.543 27.2269 17.543 26.0749V17.7369V17.7359ZM13.127 19.6879C12.8162 19.5334 12.4593 19.4992 12.1248 19.5918C11.7904 19.6845 11.5019 19.8975 11.315 20.1899L8.80501 24.5149V21.0299L5.82501 22.2639L5.81201 32.1079L7.90601 31.2259C7.90601 31.2259 8.32201 31.1039 8.56401 30.7109C8.79201 30.3449 8.77801 29.7479 8.77801 29.7479V26.6299L11.114 29.1379C11.624 29.6809 12.564 29.9519 13.395 29.2739C14.147 28.6639 14.026 27.6199 13.61 27.1449L11.49 24.9899C11.49 24.9899 13.355 22.0069 13.664 21.5189C14.066 20.8409 13.865 20.0269 13.127 19.6889V19.6879ZM11.96 31.2679C11.852 31.5249 12.107 31.7829 12.107 31.7829C13.181 33.1529 17.973 34.8879 23.181 33.6129C31.128 31.6739 32.805 25.9929 32.993 25.1929C33.033 25.0299 33.06 24.7729 32.913 24.6099C32.792 24.4739 32.604 24.4739 32.363 24.5289C26.833 25.8439 17.665 28.6779 12.363 30.9689C12.134 31.0639 12.04 31.1049 11.96 31.2679ZM7.24801 18.3589C7.23501 17.8169 6.81801 17.5189 6.10801 17.8839V19.6339C6.10801 19.6339 6.33501 19.5239 6.51001 19.4439C6.94001 19.2399 7.26201 18.8879 7.24801 18.3589ZM6.09401 16.7729C6.22801 16.7179 6.32201 16.6779 6.42901 16.6229C6.81901 16.4329 7.10001 16.0679 7.10001 15.6069C7.10001 15.0769 6.67101 14.9419 6.09401 15.2409V16.7729ZM9.15401 18.1009C9.18101 19.4839 8.20101 20.2159 6.91301 20.7449L4.29501 21.8699V14.6979C4.29501 14.6979 5.94601 14.0199 6.48301 13.8169C8.01301 13.2469 8.91301 13.9389 8.91301 14.9689C8.91301 15.6609 8.61701 16.2439 7.98601 16.7589C8.60401 16.8669 9.14101 17.3829 9.15401 18.1009ZM14.12 12.0529C14.12 11.4429 13.704 11.2939 13.207 11.4299C12.805 11.5519 12.335 11.7279 12.335 11.7279V16.1879C12.335 16.6359 12.268 17.1919 11.717 17.3279C11.301 17.4359 11.1 17.1509 11.1 16.7039V13.0569C11.1 12.4469 10.684 12.2699 10.187 12.4329C9.62401 12.6229 9.30101 12.7579 9.30101 12.7579V17.1779C9.28801 18.6559 10.308 19.4019 11.838 18.9409C13.194 18.5339 14.106 17.7609 14.12 15.7959V12.0529ZM28.698 13.8979C29.087 13.8159 29.328 13.5319 29.328 13.0439V12.2709L27.208 12.7449V11.4849C27.208 11.4849 28.255 11.2679 28.537 11.1999C28.899 11.1179 29.087 10.9149 29.087 10.4949V9.76294L27.207 10.1689V9.16594L28.711 8.85394C29.127 8.77294 29.261 8.48794 29.261 8.09394V7.33594C28.322 7.49794 26.537 7.86394 25.423 8.12194L25.409 14.6569C25.409 14.6569 27.53 14.1549 28.698 13.8969V13.8979ZM16.403 13.6269C16.403 13.6269 17.45 13.0709 17.45 12.2029C17.436 11.4579 16.765 11.6199 16.416 11.7559L16.403 13.6259V13.6269ZM16.416 14.6439V16.4059C16.416 16.8809 16.094 17.2199 15.691 17.3829C15.691 17.3959 15.691 17.3689 15.691 17.3829C15.356 17.5049 14.631 17.7489 14.631 17.7489V11.0099C14.631 11.0099 16.121 10.4809 16.993 10.2779C18.335 9.95294 19.302 10.5759 19.288 11.6879C19.275 12.7449 18.698 13.3829 18.174 13.8299L19.329 14.9419C19.5045 15.1249 19.6014 15.3693 19.5987 15.6228C19.5961 15.8763 19.4943 16.1187 19.315 16.2979C19.073 16.5279 18.443 16.7579 17.959 16.2439C17.946 16.2439 16.416 14.6439 16.416 14.6439ZM31.463 10.0069C31.463 10.0069 32.496 9.61294 32.483 8.77294C32.47 8.06794 31.785 8.18994 31.45 8.27094L31.463 10.0069ZM29.718 13.6939V7.24094C29.718 7.24094 31.584 6.90094 32.067 6.84694C33.409 6.67094 34.308 7.42994 34.282 8.48794C34.268 9.42394 33.691 9.99294 33.194 10.3319C33.194 10.3319 34.107 11.3619 34.349 11.6469C34.671 12.0129 34.657 12.6499 34.174 12.9619C33.9867 13.0913 33.7579 13.1464 33.5323 13.1164C33.3066 13.0865 33.1001 12.9737 32.953 12.7999L31.463 11.0099V12.5829C31.463 13.0569 31.181 13.4099 30.698 13.5049L29.718 13.6949V13.6939Z" fill="#001A3A"/>
    <path d="M24.993 10.983L22.349 11.593V12.339C22.349 12.691 22.59 12.909 22.939 12.84C23.154 12.8 23.329 12.759 23.329 12.759V13.505C23.329 13.803 22.899 13.993 22.443 13.979C21.798 13.952 21.449 13.451 21.436 12.501C21.45 11.254 22.04 10.521 22.832 10.319C23.222 10.21 23.584 10.264 23.866 10.305C24.55 10.413 24.939 10.088 24.953 9.519C24.966 8.909 24.429 8.529 23.288 8.569C20.792 8.651 19.517 10.468 19.517 12.623C19.517 14.833 20.953 15.81 22.697 15.498C23.677 15.294 24.174 14.969 24.51 14.671C24.845 14.373 24.993 13.925 24.993 13.531V10.983ZM14.563 3.756C11.637 5.057 9.66301 8.162 9.55601 9.464C9.51601 9.979 10.201 10.06 10.268 9.504C10.885 7.118 12.764 4.867 14.563 3.756ZM24.241 5.98C25.811 5.586 26.684 5.532 26.698 4.813C26.724 3.62 23.368 2.237 20.282 2.495C23.422 2.712 25.302 3.932 25.302 4.773C25.315 5.315 24.845 5.79 24.242 5.979L24.241 5.98ZM25.208 32.284C27.57 31.349 29.838 29.546 31.1 26.861C31.463 26.088 30.416 25.681 30.12 26.603C29.1841 29.0049 27.4495 31.0111 25.208 32.284Z" fill="#001A3A"/>
  </symbol>

  <symbol id="partner-3">
    <path d="M0.102998 24.253V29.69C0.102998 32.723 1.916 33.232 3.422 33.232C5.662 33.232 6.689 31.724 6.689 29.654V24.254H5.201V29.847C5.201 30.549 4.978 31.864 3.404 31.847C1.984 31.829 1.711 30.479 1.711 29.602V24.253H0.102998ZM12.883 24.622C12.883 24.622 11.942 24.131 10.863 24.131C9.529 24.131 7.836 24.832 7.836 26.761C7.836 28.094 8.794 28.725 9.444 29.058C9.786 29.234 10.214 29.427 10.556 29.619C10.727 29.725 11.446 29.97 11.446 30.759C11.446 31.601 10.539 31.899 10.146 31.899C8.708 31.899 7.716 31.233 7.716 31.233L7.87 32.933C7.87 32.933 8.452 33.249 10.23 33.249C11.907 33.249 13.122 32.127 13.122 30.601C13.122 29.427 12.335 28.725 11.668 28.391C11.138 28.129 10.83 27.989 10.385 27.761C9.923 27.533 9.461 27.164 9.461 26.568C9.461 25.937 10.026 25.481 10.864 25.481C12.096 25.481 12.592 26.042 12.882 26.235V24.622H12.883ZM23.028 30.321L24.208 26.884L25.27 30.321H23.028ZM15.928 30.321L17.108 26.884L18.152 30.321H15.928ZM24.945 24.253H23.165L23.456 24.99L20.701 32.548L17.861 24.253H16.065L16.355 24.99L13.413 33.04H15.021L15.535 31.514H18.58L19.093 33.039H22.122L22.635 31.514H25.68L26.193 33.039H27.973L24.945 24.253ZM0.0169983 14.38L0.0859983 17.133C0.0859983 17.133 0.735998 16.643 1.472 16.643C2.207 16.643 3.045 17.186 3.045 17.186L9.632 21.131L10.196 18.641L3.046 14.345C3.046 14.345 2.224 13.802 1.472 13.802C0.752998 13.802 0.0169983 14.38 0.0169983 14.38Z" fill="#001A3A"/>
    <path d="M0.0169983 10.7841L0.0859983 13.5371C0.0859983 13.5371 0.735998 13.0471 1.472 13.0471C2.207 13.0471 3.045 13.5901 3.045 13.5901L10.333 17.9561L10.881 15.4661L3.045 10.7491C3.045 10.7491 2.225 10.2061 1.472 10.2061C0.752998 10.2231 0.0169983 10.7841 0.0169983 10.7841Z" fill="#001A3A"/>
    <path d="M0.0169983 7.18993L0.0859983 9.94293C0.0859983 9.94293 0.735998 9.45193 1.472 9.45193C2.207 9.45193 3.045 9.99493 3.045 9.99493L11.052 14.7999L11.599 12.3099L3.045 7.17193C3.045 7.17193 2.225 6.62793 1.472 6.62793C0.752998 6.62793 0.0169983 7.18993 0.0169983 7.18993Z" fill="#001A3A"/>
    <path d="M13.738 2.823L14.474 6.068L24.5 12.083C24.5 12.083 25.287 12.627 26.057 12.627C26.827 12.627 27.527 12.065 27.527 12.065L27.459 9.295C27.459 9.295 26.826 9.785 26.057 9.785C25.287 9.785 24.5 9.242 24.5 9.242L16.75 4.595L16.22 2.508C16.22 2.42 16.288 2.385 16.322 2.368L17.639 1.947C17.81 1.947 17.913 2.104 17.913 2.227L17.981 2.367C18.033 2.385 18.221 2.297 18.238 2.28V1.49C18.238 0.947 17.81 0.456 17.246 0.456H15.928C15.928 0.456 15.74 0 15.175 0H12.678C12.028 0 11.856 0.631 11.856 0.631L10.128 7.821L3.045 3.578C3.045 3.578 2.275 3.034 1.471 3.034C0.667 3.034 0 3.595 0 3.595L0.068 6.348C0.068 6.348 0.668 5.858 1.454 5.858C2.258 5.858 3.028 6.401 3.028 6.401L11.737 11.627L13.738 2.823Z" fill="#001A3A"/>
    <path d="M14.68 6.94507L15.415 10.2061L24.516 15.6601C24.516 15.6601 25.337 16.2031 26.073 16.2031C26.826 16.2031 27.544 15.6431 27.544 15.6431L27.476 12.8891C27.476 12.8891 26.894 13.3801 26.09 13.3801C25.269 13.3801 24.533 12.8371 24.533 12.8371L14.68 6.94507Z" fill="#001A3A"/>
    <path d="M15.603 11.1001L16.339 14.3631L24.499 19.2551C24.499 19.2551 25.32 19.7991 26.056 19.7991C26.808 19.7991 27.527 19.2371 27.527 19.2371L27.459 16.4841C27.459 16.4841 26.877 16.9751 26.073 16.9751C25.252 16.9751 24.516 16.4321 24.516 16.4321L15.603 11.1001Z" fill="#001A3A"/>
    <path d="M16.544 15.2571L17.28 18.5011L24.516 22.8321C24.516 22.8321 25.337 23.3761 26.073 23.3761C26.826 23.3761 27.544 22.8151 27.544 22.8151L27.476 20.0621C27.476 20.0621 26.894 20.5521 26.09 20.5521C25.269 20.5521 24.533 20.0091 24.533 20.0091L16.544 15.2571Z" fill="#001A3A"/>
  </symbol>

  <symbol id="partner-4">
    <path d="M23.698 29.7499H5.432C2.432 29.7499 0 27.2129 0 24.0829C0 20.9529 2.432 18.4169 5.432 18.4169C6.284 18.4169 7.037 18.3129 9.235 19.6209L23.698 29.7509V29.7499ZM22.168 27.8739L7.269 17.3719C4.822 15.6469 4.179 12.1799 5.833 9.62693C7.486 7.07393 10.81 6.40293 13.257 8.12793C13.952 8.61793 14.621 8.96593 15.723 11.2969L22.168 27.8739ZM21.852 25.4169L15.035 7.93793C13.915 5.06793 15.145 1.75493 17.779 0.539932C20.414 -0.675068 23.457 0.666932 24.577 3.53793C24.895 4.35293 25.263 5.03293 24.982 7.64393L21.852 25.4169ZM27.003 29.7499H45.269C48.269 29.7499 50.701 27.2129 50.701 24.0829C50.701 20.9529 48.269 18.4169 45.269 18.4169C44.417 18.4169 43.664 18.3129 41.466 19.6209L27.003 29.7499ZM28.532 27.8749L43.431 17.3729C45.878 15.6479 46.521 12.1799 44.867 9.62693C43.214 7.07493 39.89 6.40393 37.443 8.12893C36.748 8.61893 36.079 8.96693 34.977 11.2969L28.532 27.8749ZM35.665 7.93793L28.848 25.4169L26.077 9.67993C25.837 8.16993 26.061 7.87493 26.481 7.43593C26.8682 7.04228 27.3192 6.71702 27.815 6.47393C27.912 6.42693 27.928 6.28993 27.832 6.23793C27.5382 6.08402 27.2185 5.9857 26.889 5.94793C26.4665 5.90991 26.0416 5.90924 25.619 5.94593C25.627 4.78393 25.843 4.24193 26.058 3.70193L26.124 3.53693C27.244 0.666932 30.287 -0.675068 32.922 0.539932C35.556 1.75493 36.785 5.06693 35.665 7.93793Z" fill="#001A3A"/>
  </symbol>

  <symbol id="partner-5">
    <g clip-path="url(#clip0_0_155)">
      <path fill-rule="evenodd" clip-rule="evenodd" d="M30.17 0H1.21931e-06V17.651C-0.000131289 11.7677 0.000535378 5.88433 0.00200122 0.001V26.491C1.21933e-06 23.553 1.21931e-06 20.614 1.21931e-06 17.674V34H6.347L6.381 33.93C6.436 33.819 6.493 33.705 6.499 33.578C6.484 33.446 6.39 33.347 6.301 33.253L6.253 33.2L4.106 31.055H4.105L4.103 31.052C3.028 29.978 1.953 28.903 0.876001 27.831C0.847001 27.803 0.819001 27.774 0.791001 27.744C0.689001 27.639 0.585001 27.53 0.437001 27.502C0.320001 27.499 0.215001 27.548 0.111001 27.597C0.0740012 27.613 0.0380012 27.63 0.00100122 27.645V26.492C0.394001 26.094 0.791001 25.698 1.187 25.303C1.583 24.908 1.979 24.513 2.372 24.114C2.4834 23.9884 2.63721 23.9083 2.804 23.889C3.047 23.871 3.272 24.132 3.204 24.371C3.184 24.441 3.151 24.51 3.118 24.578C3.062 24.691 3.007 24.806 3.011 24.935C3.048 25.085 3.159 25.192 3.266 25.295L3.322 25.349L5.042 27.071L5.055 27.084L5.084 27.112C6.31 28.34 7.537 29.568 8.766 30.794C8.856 30.88 8.956 30.976 9.087 30.986C9.205 30.986 9.309 30.936 9.413 30.885C9.493 30.846 9.572 30.807 9.658 30.79C9.898 30.74 10.14 30.98 10.108 31.219C10.087 31.426 9.94 31.583 9.798 31.719L7.517 33.999H17.18C17.23 33.899 17.291 33.771 17.202 33.671C17.082 33.532 16.951 33.404 16.819 33.275C16.7331 33.1922 16.6488 33.1079 16.566 33.022L15.956 32.412L15.943 32.398L15.935 32.391C15.307 31.763 14.679 31.136 14.053 30.505L14.039 30.492C13.971 30.43 13.896 30.362 13.803 30.369C13.751 30.38 13.703 30.402 13.653 30.424C13.598 30.4527 13.539 30.4729 13.478 30.484C13.35 30.476 13.228 30.351 13.25 30.219C13.29 30.1 13.377 30.012 13.463 29.924L13.485 29.902L13.5 29.887C13.704 29.687 13.905 29.486 14.105 29.284H14.106C14.356 29.034 14.605 28.782 14.86 28.537C16.2659 29.9468 17.6736 31.3548 19.083 32.761L18.448 33.394L18.447 33.396L17.841 34H34V0H30.17ZM32.227 0.002H31.638L30.171 0C29.731 0 29.293 0 28.854 0.002H25.386C24.0347 -0.00036576 22.6833 -0.00036576 21.332 0.002H0.00200122H25.386C25.751 0.002 26.116 0.003 26.48 0.005C26.213 0.275 25.943 0.545 25.673 0.815C25.462 1.026 25.251 1.236 25.042 1.447C25.144 1.555 25.249 1.659 25.354 1.763C25.444 1.851 25.533 1.939 25.62 2.029C26.055 1.729 26.548 1.49 27.083 1.451C27.565 1.401 28.051 1.526 28.493 1.719C28.543 1.74 28.593 1.765 28.643 1.791C28.758 1.85 28.875 1.91 29.007 1.922C29.193 1.912 29.332 1.747 29.397 1.582C29.45 1.469 29.4 1.333 29.311 1.251C29.135 1.073 28.958 0.897 28.781 0.721C28.5425 0.483545 28.3051 0.244875 28.069 0.005C28.33 0.003 28.592 0.002 28.854 0.002H32.227ZM32.227 0.002H33.831H32.227ZM33.999 17.048V17.188L33.94 17.211C33.863 17.241 33.782 17.275 33.706 17.238C33.614 17.179 33.538 17.1 33.463 17.022C33.433 16.992 33.404 16.96 33.373 16.931C32.879 16.439 32.386 15.945 31.893 15.451C31.2347 14.79 30.574 14.1313 29.911 13.475L29.536 13.851V13.852H29.535C29.201 14.188 28.869 14.522 28.529 14.85C28.679 15.018 28.839 15.176 28.999 15.333C29.103 15.435 29.206 15.537 29.308 15.642V15.643C30.237 16.571 31.164 17.499 32.096 18.427L32.151 18.482C32.214 18.543 32.277 18.605 32.31 18.688C32.32 18.766 32.286 18.836 32.254 18.905C32.2368 18.9396 32.2221 18.9753 32.21 19.012C32.163 19.137 32.263 19.287 32.395 19.291C32.513 19.312 32.613 19.234 32.688 19.155C32.98 18.861 33.274 18.568 33.568 18.275L33.571 18.271L33.999 17.845V34V17.048ZM33.999 8.742V17.048C34.001 14.946 34 12.843 33.999 10.74V8.742ZM33.999 5.708V5.792C33.7743 5.57072 33.551 5.34805 33.329 5.124C33.15 4.944 32.972 4.764 32.792 4.586C32.684 4.475 32.51 4.418 32.363 4.486C32.2612 4.53022 32.1788 4.60978 32.131 4.71C32.079 4.913 32.167 5.113 32.248 5.295L32.253 5.306C32.503 5.835 32.613 6.431 32.538 7.013C32.488 7.409 32.346 7.799 32.131 8.138C32.074 8.22 32.021 8.305 31.971 8.391C32.069 8.476 32.161 8.569 32.251 8.662C32.352 8.765 32.453 8.867 32.563 8.959C32.863 8.65 33.168 8.346 33.474 8.041L33.475 8.04C33.65 7.866 33.825 7.691 33.998 7.516V8.742V5.708H33.999ZM33.999 0.734V5.708C34.001 4.448 34 3.188 33.999 1.93V0.734ZM33.999 0.002V0.734V0.002ZM33.999 0.002H33.904H34H33.999ZM0.00200122 34H2.645H0.00200122ZM24.524 1.96C24.556 1.925 24.613 1.892 24.645 1.946C27.134 4.432 29.621 6.919 32.106 9.408C31.233 10.28 30.361 11.154 29.489 12.028C29.375 12.135 29.236 12.225 29.079 12.235C28.861 12.253 28.643 12.057 28.661 11.835C28.665 11.728 28.711 11.633 28.759 11.537C28.807 11.439 28.856 11.34 28.858 11.228C28.864 11.099 28.773 11.001 28.688 10.91L28.668 10.89C27.404 9.628 26.142 8.365 24.879 7.1H24.878L24.873 7.094L23.135 5.355L23.111 5.332C23.014 5.237 22.905 5.132 22.761 5.142C22.6539 5.15082 22.5503 5.184 22.458 5.239C22.35 5.293 22.242 5.347 22.118 5.334C21.982 5.338 21.871 5.23 21.803 5.12C21.71 4.927 21.796 4.695 21.936 4.552L22.04 4.448L22.041 4.447C22.871 3.617 23.699 2.789 24.524 1.96ZM28.476 2.453C28.315 2.432 28.179 2.553 28.108 2.685C28.04 2.871 28.118 3.071 28.218 3.231C28.415 3.556 28.572 3.928 28.548 4.317C28.538 4.45 28.492 4.572 28.445 4.695C28.431 4.73 28.417 4.766 28.405 4.802C28.511 4.928 28.631 5.043 28.751 5.159C28.839 5.245 28.928 5.33 29.011 5.419C29.179 5.345 29.357 5.269 29.543 5.273C29.903 5.256 30.246 5.398 30.55 5.577L30.577 5.592C30.711 5.666 30.853 5.744 31.007 5.742C31.203 5.72 31.389 5.538 31.371 5.334C31.343 5.163 31.217 5.043 31.095 4.927C30.3624 4.19623 29.6308 3.46457 28.9 2.732L28.868 2.702C28.759 2.59 28.638 2.467 28.475 2.454L28.476 2.453ZM12.375 4.578C12.575 4.368 12.78 4.164 12.985 3.96C13.176 3.77 13.367 3.58 13.553 3.386C13.843 3.667 14.126 3.951 14.41 4.236L14.639 4.464C14.756 4.578 14.649 4.771 14.517 4.817C14.439 4.827 14.369 4.794 14.299 4.76C14.27 4.74546 14.2403 4.73244 14.21 4.721C13.825 4.531 13.346 4.511 12.96 4.718C12.921 4.734 12.885 4.758 12.848 4.781C12.792 4.817 12.736 4.853 12.671 4.864C12.6068 4.81014 12.546 4.75237 12.489 4.691C12.451 4.653 12.414 4.614 12.375 4.578ZM13.043 5.711C12.742 5.408 12.44 5.104 12.133 4.807C11.843 5.104 11.551 5.397 11.258 5.687L10.758 6.188C10.6937 6.24575 10.6519 6.32439 10.64 6.41C10.626 6.52 10.726 6.628 10.833 6.638C10.8927 6.63095 10.9505 6.61227 11.003 6.583C11.074 6.55 11.145 6.516 11.226 6.535C11.298 6.572 11.355 6.631 11.412 6.69C12.3678 7.6495 13.3255 8.60716 14.285 9.563C14.345 9.626 14.421 9.708 14.378 9.801C14.367 9.83522 14.3536 9.86864 14.338 9.901C14.294 10.001 14.247 10.107 14.331 10.198C14.424 10.33 14.617 10.283 14.713 10.176C15.183 9.712 15.649 9.246 16.113 8.776C15.648 8.316 15.186 7.854 14.725 7.391H14.724L14.722 7.389V7.388H14.721C14.374 7.041 14.028 6.694 13.681 6.349C13.468 6.138 13.256 5.925 13.043 5.711ZM13.996 5.378C13.9858 5.34927 13.9819 5.31868 13.9847 5.28832C13.9875 5.25796 13.9968 5.22856 14.012 5.20214C14.0272 5.17572 14.0479 5.15291 14.0728 5.13528C14.0976 5.11765 14.126 5.10561 14.156 5.1C14.249 5.085 14.324 5.156 14.388 5.217L14.682 5.511L14.683 5.512C14.971 5.801 15.259 6.09 15.549 6.374L15.595 6.422C15.654 6.48 15.715 6.54 15.72 6.628C15.734 6.738 15.627 6.845 15.513 6.835C15.418 6.835 15.338 6.787 15.257 6.74C15.2112 6.71148 15.1631 6.68705 15.113 6.667C15.0132 6.61883 14.9035 6.59439 14.7927 6.59561C14.6818 6.59682 14.5728 6.62365 14.474 6.674L14.414 6.613C14.33 6.529 14.246 6.444 14.16 6.367C14.207 6.21 14.25 6.042 14.21 5.877C14.193 5.769 14.142 5.675 14.091 5.581C14.0535 5.51624 14.0217 5.44831 13.996 5.378ZM21.186 5.471C21.0508 5.492 20.9264 5.55703 20.832 5.656L19.704 6.784L19.703 6.785V6.786H19.702L19.701 6.787L19.7 6.788V6.789C19.198 7.291 18.696 7.794 18.19 8.295C18.541 8.962 18.9 9.625 19.26 10.287C19.622 10.954 19.983 11.622 20.336 12.293L20.386 12.286L20.356 12.323L20.351 12.33L20.337 12.348L20.325 12.361C20.291 12.324 20.252 12.295 20.215 12.267L20.197 12.254C19.566 11.946 18.935 11.641 18.304 11.336C17.597 10.995 16.89 10.654 16.184 10.308C15.676 10.812 15.169 11.318 14.662 11.825L14.656 11.832H14.655V11.833H14.654V11.834H14.653V11.835H14.652V11.836H14.651V11.837L13.617 12.868C13.5178 12.9573 13.4431 13.0706 13.4 13.197C13.346 13.386 13.467 13.593 13.642 13.671C13.789 13.718 13.946 13.661 14.064 13.568L14.137 13.51C14.227 13.437 14.319 13.362 14.442 13.379C14.843 13.427 15.203 13.611 15.559 13.792L15.745 13.886C16.811 14.413 17.877 14.942 18.943 15.471H18.945C20.528 16.257 22.111 17.043 23.695 17.823C23.788 17.727 23.881 17.631 23.977 17.541C23.9608 17.5007 23.9418 17.4616 23.92 17.424C23.258 16.194 22.594 14.967 21.93 13.739L21.927 13.736C21.263 12.508 20.598 11.281 19.937 10.051L22.285 12.398L22.286 12.399L22.287 12.401L22.289 12.402V12.403L22.292 12.406H22.293L24.741 14.853C24.82 14.939 24.902 15.035 24.913 15.153C24.916 15.273 24.863 15.38 24.811 15.485C24.756 15.598 24.7 15.71 24.713 15.839C24.738 16.028 24.923 16.192 25.116 16.181C25.291 16.181 25.441 16.074 25.559 15.956C26.011 15.506 26.463 15.053 26.914 14.601L26.916 14.599C27.38 14.134 27.843 13.669 28.308 13.207C28.418 13.097 28.515 12.957 28.529 12.797C28.558 12.561 28.326 12.329 28.09 12.368C28.001 12.384 27.92 12.424 27.838 12.463C27.733 12.513 27.628 12.565 27.508 12.565C27.388 12.565 27.297 12.48 27.211 12.4C27.1958 12.3855 27.1805 12.3711 27.165 12.357C25.7 10.887 24.23 9.42 22.76 7.952L22.757 7.949L21.7 6.895C21.6822 6.87612 21.6642 6.85745 21.646 6.839C21.556 6.747 21.462 6.651 21.432 6.521C21.424 6.393 21.478 6.283 21.532 6.172C21.573 6.087 21.615 6.002 21.628 5.91C21.675 5.667 21.425 5.435 21.186 5.47V5.471ZM16.145 6.26C16.209 6.142 16.391 6.128 16.477 6.228C16.709 6.462 16.945 6.697 17.18 6.931V6.932L17.182 6.933L17.569 7.32C17.163 7.73 16.753 8.14 16.342 8.545C16.308 8.505 16.269 8.469 16.231 8.433C16.1615 8.3735 16.1012 8.30409 16.052 8.227L16.068 8.201C16.181 8.009 16.296 7.813 16.328 7.588C16.388 7.263 16.334 6.92 16.195 6.62C16.187 6.597 16.177 6.574 16.167 6.55C16.127 6.453 16.085 6.35 16.145 6.26ZM10.405 6.617C10.301 6.642 10.222 6.72 10.151 6.795L9.531 7.415H9.53V7.416C9.266 7.678 9.002 7.94 8.74 8.206C8.63 8.306 8.587 8.498 8.723 8.595C8.816 8.67 8.909 8.628 9.003 8.585C9.079 8.55 9.156 8.515 9.233 8.541C9.306 8.584 9.363 8.643 9.423 8.702L9.483 8.762L9.761 9.041H9.762C10.052 9.331 10.342 9.622 10.633 9.908L10.399 10.14C10.322 10.218 10.244 10.296 10.165 10.373C10.265 10.483 10.372 10.587 10.479 10.69C10.636 10.537 10.791 10.383 10.944 10.226C11.196 10.475 11.446 10.726 11.696 10.976H11.697L12.25 11.529L12.264 11.543L12.278 11.558C12.316 11.598 12.354 11.638 12.382 11.686C12.402 11.766 12.369 11.838 12.336 11.91C12.304 11.98 12.272 12.051 12.289 12.13C12.3026 12.1638 12.3229 12.1946 12.3487 12.2203C12.3744 12.2461 12.4052 12.2664 12.439 12.28C12.561 12.308 12.668 12.222 12.749 12.14C13.214 11.68 13.679 11.215 14.142 10.751L14.158 10.735C14.218 10.672 14.283 10.604 14.299 10.515C14.342 10.387 14.217 10.24 14.082 10.255C14.033 10.265 13.987 10.286 13.942 10.307C13.885 10.3363 13.8235 10.3559 13.76 10.365C13.679 10.347 13.617 10.286 13.56 10.231L13.535 10.208C12.917 9.592 12.299 8.974 11.682 8.355H11.681L10.679 7.352L10.656 7.327C10.603 7.27 10.546 7.207 10.558 7.124C10.5691 7.07914 10.5848 7.03556 10.605 6.994C10.635 6.922 10.666 6.852 10.651 6.774C10.637 6.66 10.508 6.596 10.404 6.617H10.405ZM8.64 8.745C8.59 8.623 8.43 8.58 8.322 8.648C8.27121 8.67986 8.22424 8.71744 8.182 8.76L8.165 8.777C7.705 9.241 7.241 9.705 6.777 10.169C6.701 10.244 6.623 10.333 6.634 10.444C6.637 10.547 6.73 10.644 6.837 10.64C6.893 10.634 6.945 10.611 6.997 10.59C7.05861 10.5569 7.12711 10.5388 7.197 10.537C7.285 10.569 7.349 10.634 7.413 10.699C8.36777 11.6569 9.32443 12.6129 10.283 13.567C10.3281 13.6112 10.3623 13.6653 10.383 13.725C10.3809 13.79 10.3631 13.8535 10.331 13.91C10.301 13.977 10.271 14.043 10.282 14.118C10.296 14.238 10.436 14.31 10.55 14.278C10.638 14.251 10.706 14.185 10.77 14.121L10.787 14.105L10.803 14.089C11.065 13.823 11.33 13.559 11.594 13.295C11.794 13.095 11.996 12.895 12.196 12.693C12.303 12.6 12.346 12.404 12.221 12.304C12.129 12.236 12.029 12.276 11.93 12.315C11.821 12.358 11.714 12.401 11.621 12.3C10.945 11.627 10.271 10.952 9.596 10.276H9.595V10.275H9.594V10.274H9.593V10.273H9.592V10.272L9.591 10.271H9.59V10.27V10.269H9.589V10.267L8.659 9.337L8.642 9.32C8.599 9.275 8.552 9.225 8.555 9.159C8.557 9.099 8.58 9.043 8.605 8.987C8.637 8.908 8.67 8.83 8.641 8.745H8.64ZM6.102 10.843C6.193 10.751 6.284 10.66 6.377 10.569C6.581 10.767 6.782 10.969 6.984 11.172C7.154 11.342 7.324 11.512 7.494 11.679L7.54 11.728C7.592 11.782 7.645 11.836 7.672 11.908C7.715 12.083 7.516 12.275 7.341 12.197C7.24431 12.1496 7.15281 12.0923 7.068 12.026C7.00099 11.975 6.93085 11.9282 6.858 11.886C6.577 11.711 6.248 11.601 5.913 11.64C5.8805 11.6068 5.84749 11.5742 5.814 11.542C5.748 11.477 5.681 11.412 5.624 11.34C5.647 11.293 5.684 11.258 5.719 11.222L5.741 11.201C5.863 11.083 5.982 10.963 6.102 10.843ZM5.078 11.87C4.781 12.166 4.485 12.463 4.186 12.757C4.15227 12.7949 4.12024 12.8343 4.09 12.875L4.079 12.889C4.729 13.532 5.376 14.179 6.022 14.827C6.51 15.316 6.998 15.805 7.488 16.292L7.522 16.328C7.572 16.38 7.626 16.435 7.62 16.513C7.61612 16.5715 7.59975 16.6284 7.572 16.68C7.54653 16.728 7.52993 16.7801 7.523 16.834C7.513 16.942 7.62 17.049 7.731 17.038C7.831 17.045 7.916 16.978 7.984 16.91L8.444 16.45V16.448C8.772 16.12 9.099 15.792 9.43 15.464C9.49 15.399 9.544 15.321 9.544 15.228C9.548 15.092 9.398 14.978 9.269 15.035L9.195 15.065C9.084 15.115 8.962 15.168 8.865 15.06C8.61 14.814 8.36 14.561 8.11 14.309C7.95 14.149 7.791 13.988 7.63 13.829C6.877 13.079 6.125 12.326 5.374 11.572L5.078 11.87ZM30.978 12.408C31.421 12.843 31.86 13.282 32.296 13.725C32.435 13.857 32.335 14.121 32.149 14.15C32.011 14.17 31.899 14.086 31.792 14.006C31.765 13.986 31.74 13.967 31.714 13.95C31.36 13.707 30.942 13.479 30.5 13.554C30.3805 13.4495 30.2704 13.3347 30.171 13.211C30.367 13.023 30.558 12.831 30.748 12.639L30.978 12.408ZM4.035 13.312C3.97933 13.2355 3.90588 13.1738 3.821 13.132C3.679 13.262 3.544 13.4 3.408 13.536C3.295 13.65 3.182 13.765 3.065 13.875C3.258 14.07 3.452 14.263 3.645 14.455L3.646 14.457C3.85174 14.6609 4.05674 14.8656 4.261 15.071C4.311 15.12 4.367 15.174 4.443 15.174C4.6 15.192 4.753 15.028 4.707 14.871C4.675 14.784 4.622 14.709 4.569 14.634L4.514 14.554C4.282 14.228 4.086 13.839 4.143 13.425C4.105 13.392 4.07 13.352 4.035 13.312ZM11.765 15.146C12.4816 14.9226 13.2436 14.8868 13.978 15.042C15.22 15.307 16.32 16.035 17.198 16.938C18.058 17.809 18.744 18.902 18.976 20.119C19.104 20.787 19.076 21.486 18.883 22.139C18.6863 22.7849 18.358 23.3831 17.919 23.896C17.8388 23.8122 17.7571 23.7299 17.674 23.649C17.564 23.541 17.454 23.432 17.352 23.318C17.352 23.261 17.372 23.21 17.393 23.158C17.408 23.121 17.423 23.085 17.43 23.047C17.4761 22.8899 17.4782 22.7232 17.4361 22.565C17.3939 22.4069 17.3091 22.2633 17.191 22.15C16.301 21.258 15.408 20.365 14.515 19.473L14.513 19.47L11.893 16.849C11.733 16.685 11.529 16.552 11.297 16.535C11.11 16.51 10.927 16.576 10.749 16.64L10.744 16.642C10.69 16.671 10.651 16.629 10.615 16.591C10.6039 16.5784 10.5919 16.5667 10.579 16.556C10.513 16.484 10.443 16.416 10.373 16.346C10.292 16.2683 10.2133 16.1883 10.137 16.106L10.135 16.085L10.133 16.063C10.6109 15.6523 11.1656 15.3406 11.765 15.146ZM16.985 15.133C16.8542 15.061 16.7178 14.9998 16.577 14.95C16.665 15.054 16.762 15.148 16.859 15.242C16.918 15.3 16.977 15.357 17.034 15.417L18.49 16.875L19.943 18.33C20.2 18.641 20.433 19.002 20.49 19.409C20.523 19.615 20.461 19.816 20.4 20.014L20.368 20.119C20.297 20.348 20.528 20.597 20.765 20.562C20.929 20.544 21.065 20.433 21.182 20.326C21.626 19.891 22.066 19.451 22.503 19.009C22.635 18.873 22.76 18.709 22.771 18.512C22.7645 18.439 22.7382 18.3692 22.6948 18.3101C22.6514 18.2511 22.5927 18.205 22.525 18.177C22.394 18.136 22.26 18.18 22.135 18.222L22.121 18.227C21.868 18.317 21.581 18.317 21.328 18.22C20.965 18.0838 20.6379 17.8662 20.372 17.584L19.993 17.206L19.991 17.204C19.628 16.842 19.267 16.481 18.908 16.117C18.8665 16.0763 18.8198 16.0413 18.769 16.013C18.5 15.883 18.234 15.75 17.967 15.618C17.6604 15.4652 17.3531 15.3139 17.045 15.164L16.985 15.133ZM27.465 15.921L27.717 15.67V15.669H27.718L28.272 15.114C28.354 15.18 28.428 15.256 28.503 15.331C28.536 15.365 28.57 15.399 28.604 15.431C28.558 15.789 28.679 16.141 28.864 16.441C28.907 16.518 28.959 16.589 29.01 16.66C29.074 16.75 29.138 16.839 29.186 16.938C29.233 17.024 29.2 17.12 29.168 17.206C29.618 17.51 30.012 17.892 30.328 18.334C30.689 18.844 30.942 19.451 30.928 20.087C30.932 20.69 30.671 21.268 30.289 21.726C30.255 21.69 30.219 21.656 30.182 21.621C30.108 21.551 30.034 21.481 29.975 21.401C29.981 21.358 29.991 21.315 30.002 21.272C30.025 21.184 30.047 21.097 30.025 21.008C29.992 20.848 29.875 20.732 29.764 20.622L29.739 20.597C28.797 19.658 27.858 18.72 26.919 17.781C26.826 17.688 26.716 17.602 26.583 17.591C26.459 17.5842 26.335 17.6051 26.22 17.652C26.113 17.552 26.007 17.446 25.903 17.342L25.891 17.331C26.366 16.924 26.983 16.663 27.615 16.695C27.845 16.689 28.069 16.74 28.293 16.791L28.329 16.799C28.2145 16.6809 28.0985 16.5642 27.981 16.449C27.805 16.276 27.631 16.103 27.465 15.92V15.921ZM9.891 16.755C9.81251 16.6788 9.73484 16.6018 9.658 16.524C9.28332 16.9676 8.98768 17.4723 8.784 18.016C8.51 18.7644 8.45043 19.5745 8.612 20.355C8.844 21.522 9.502 22.568 10.315 23.421C11.197 24.339 12.3 25.092 13.553 25.367C14.3813 25.5539 15.2461 25.4945 16.041 25.196C16.5642 24.9938 17.0486 24.7028 17.473 24.336C17.377 24.239 17.28 24.144 17.183 24.048C17.0868 23.9526 16.9908 23.8569 16.895 23.761C16.685 23.839 16.459 23.918 16.231 23.882C15.974 23.842 15.771 23.672 15.602 23.489L13.942 21.829L13.937 21.825V21.824C12.753 20.642 11.571 19.46 10.39 18.277C10.165 18.055 10.044 17.72 10.137 17.413C10.1455 17.3699 10.1589 17.328 10.177 17.288C10.206 17.218 10.234 17.149 10.212 17.078C10.108 16.968 9.999 16.861 9.891 16.755ZM25.331 20.537C25.102 20.08 24.959 19.566 25.009 19.048C25.0601 18.5032 25.2844 17.989 25.649 17.581C25.716 17.651 25.788 17.721 25.859 17.792L25.969 17.902L25.949 17.966C25.913 18.076 25.875 18.189 25.905 18.302C25.927 18.423 26.009 18.52 26.095 18.605L27.491 20.002L27.494 20.005L27.497 20.008L28.915 21.426L28.945 21.456L28.966 21.476C29.06 21.571 29.156 21.668 29.29 21.704C29.425 21.741 29.563 21.699 29.695 21.658L29.718 21.651L29.748 21.681L29.782 21.714V21.715C29.869 21.801 29.957 21.888 30.039 21.979C29.589 22.35 29.029 22.611 28.436 22.611C27.862 22.636 27.298 22.433 26.819 22.133C26.4717 21.9138 26.159 21.6442 25.891 21.333C26.0195 21.7564 25.9838 22.2127 25.791 22.611C25.598 22.997 25.299 23.311 25.002 23.614L24.99 23.602C24.887 23.499 24.78 23.392 24.674 23.289C24.767 23.139 24.827 22.961 24.77 22.786C24.713 22.636 24.602 22.522 24.492 22.41L24.427 22.343C24.162 22.075 23.895 21.807 23.627 21.54L23.604 21.517C23.454 21.377 23.291 21.225 23.078 21.211C22.946 21.197 22.828 21.265 22.718 21.329C22.6639 21.2764 22.6103 21.2234 22.557 21.17C22.5015 21.1145 22.4455 21.0595 22.389 21.005C22.817 20.573 23.306 20.126 23.935 20.048C24.449 19.962 24.966 20.183 25.331 20.537ZM6.588 20.1C6.438 20.111 6.299 20.19 6.192 20.293C5.686 20.803 5.178 21.311 4.669 21.819L4.668 21.82L3.514 22.974L3.49 23C3.372 23.114 3.244 23.238 3.2 23.405C3.107 23.658 3.354 23.965 3.625 23.919C3.713 23.902 3.795 23.862 3.876 23.822C3.99 23.766 4.105 23.71 4.236 23.719C4.369 23.751 4.467 23.849 4.562 23.943L4.628 24.008C4.908 24.286 5.186 24.565 5.464 24.843C5.952 25.333 6.441 25.823 6.934 26.307L6.933 26.337C6.93201 26.347 6.93134 26.357 6.931 26.367C6.641 26.645 6.358 26.928 6.081 27.217C6.274 27.414 6.467 27.607 6.66 27.799C6.803 27.661 6.944 27.519 7.085 27.377C7.225 27.237 7.364 27.097 7.505 26.96C7.542 26.922 7.575 26.956 7.605 26.985C8.01832 27.3993 8.43232 27.813 8.847 28.226V28.227L8.848 28.228L8.85 28.23C9.263 28.642 9.677 29.055 10.09 29.47L10.117 29.5C10.193 29.585 10.277 29.677 10.283 29.795C10.2732 29.909 10.238 30.0194 10.18 30.118C10.1299 30.2059 10.0961 30.3021 10.08 30.402C10.0781 30.4554 10.087 30.5086 10.106 30.5584C10.125 30.6083 10.1538 30.6539 10.1907 30.6925C10.2276 30.7311 10.2719 30.7619 10.3209 30.7831C10.3699 30.8043 10.4226 30.8155 10.476 30.816C10.651 30.816 10.801 30.713 10.922 30.595L13.689 27.828C13.799 27.714 13.889 27.568 13.896 27.407C13.906 27.171 13.671 26.957 13.436 27.003C13.354 27.023 13.279 27.06 13.204 27.098C13.098 27.15 12.993 27.203 12.871 27.203C12.75 27.193 12.654 27.11 12.568 27.028L7.07 21.53C7.05773 21.5179 7.04539 21.5059 7.033 21.494C6.927 21.39 6.812 21.276 6.799 21.124C6.803 21.002 6.855 20.895 6.906 20.788C6.939 20.721 6.971 20.654 6.992 20.584C7.06 20.344 6.835 20.088 6.588 20.102V20.1ZM22.886 22C23.052 22.166 23.216 22.333 23.385 22.497C24.183 23.299 24.985 24.101 25.787 24.902L25.791 24.907L25.801 24.915L25.807 24.92L25.83 24.94C25.874 24.98 25.919 25.02 25.977 25.031C26.0494 25.0316 26.1206 25.0126 26.183 24.976C26.254 24.943 26.325 24.91 26.405 24.924C26.498 24.956 26.583 25.046 26.573 25.149C26.573 25.267 26.488 25.355 26.41 25.435C26.1451 25.6974 25.8811 25.9607 25.618 26.225L25.617 26.227L24.867 26.974C24.756 27.095 24.549 27.034 24.481 26.899C24.433 26.819 24.47 26.736 24.506 26.655C24.546 26.567 24.584 26.479 24.509 26.399C23.4505 25.3445 22.3938 24.2882 21.339 23.23C21.293 23.1772 21.239 23.132 21.179 23.096C21.085 23.07 21.004 23.108 20.923 23.145C20.87 23.169 20.817 23.193 20.761 23.2C20.651 23.19 20.543 23.093 20.551 22.979C20.54 22.855 20.631 22.759 20.709 22.677L20.711 22.675C21.186 22.204 21.661 21.729 22.131 21.258C22.389 21.498 22.638 21.748 22.886 22ZM19.437 23.95C19.274 24.114 19.112 24.277 18.947 24.439C19.056 24.544 19.161 24.652 19.266 24.76L19.272 24.767L19.33 24.733C19.511 24.625 19.694 24.517 19.9 24.475C20.261 24.382 20.64 24.46 20.968 24.621L21.022 24.646C21.088 24.678 21.156 24.712 21.229 24.703C21.361 24.646 21.496 24.457 21.368 24.332L20.799 23.762L20.219 23.179C19.953 23.43 19.695 23.69 19.437 23.949V23.95ZM18.029 25.36C18.252 25.138 18.476 24.916 18.698 24.692C19.068 25.058 19.436 25.427 19.805 25.795C20.232 26.223 20.658 26.65 21.089 27.074C21.336 27.319 21.581 27.565 21.827 27.812C22.193 28.179 22.558 28.546 22.927 28.909C22.671 29.173 22.41 29.434 22.15 29.694C21.924 29.918 21.7 30.142 21.479 30.369C21.4063 30.4386 21.3197 30.492 21.225 30.526L21.205 30.519C21.12 30.489 21.023 30.455 20.997 30.362C20.967 30.272 21.005 30.192 21.042 30.112C21.074 30.042 21.106 29.974 21.097 29.898C21.0368 29.7949 20.9601 29.7023 20.87 29.624C20.8439 29.5991 20.8183 29.5737 20.793 29.548L18.191 26.945C18.143 26.9 18.0963 26.8537 18.051 26.806C17.951 26.702 17.851 26.598 17.727 26.524C17.647 26.508 17.572 26.544 17.497 26.577C17.4 26.622 17.305 26.667 17.205 26.595C17.055 26.499 17.098 26.285 17.212 26.178C17.482 25.903 17.755 25.632 18.028 25.361L18.029 25.36ZM20.907 25C20.754 24.974 20.618 25.146 20.675 25.292C20.701 25.366 20.739 25.435 20.776 25.505C20.826 25.598 20.876 25.692 20.9 25.795C20.9496 25.9758 20.9293 26.1686 20.843 26.335C20.921 26.41 20.997 26.486 21.073 26.564H21.074V26.565L21.182 26.674C21.2887 26.6194 21.4067 26.5906 21.5265 26.5899C21.6464 26.5892 21.7647 26.6166 21.872 26.67C21.926 26.69 21.977 26.72 22.028 26.75C22.124 26.805 22.218 26.86 22.332 26.849C22.428 26.839 22.478 26.752 22.521 26.677L22.527 26.667L22.535 26.652C22.497 26.515 22.395 26.42 22.295 26.327C22.265 26.299 22.235 26.271 22.207 26.242C21.997 26.028 21.785 25.817 21.573 25.605C21.4091 25.4419 21.2458 25.2782 21.083 25.114C21.0362 25.06 20.9752 25.0202 20.907 24.999V25ZM22.971 26.224C23.046 26.11 23.228 26.092 23.317 26.199L23.754 26.637C23.997 26.879 24.239 27.122 24.477 27.367C24.305 27.535 24.136 27.706 23.966 27.877C23.703 28.143 23.44 28.409 23.167 28.662C23.105 28.596 23.04 28.531 22.975 28.465L22.845 28.334C23.228 27.863 23.281 27.181 23.025 26.638C23.0157 26.6131 23.0057 26.5884 22.995 26.564C22.947 26.452 22.895 26.328 22.971 26.224ZM16.62 27.549C17.255 27.495 17.887 27.723 18.412 28.069C18.822 28.345 19.205 28.662 19.497 29.059C19.8547 29.5274 20.0537 30.0977 20.065 30.687C20.075 31.357 19.811 32.037 19.333 32.511C19.2228 32.4045 19.1145 32.2962 19.008 32.186L19.02 32.163C19.081 32.049 19.146 31.927 19.126 31.793C19.09 31.579 18.944 31.404 18.797 31.258L16.387 28.848C16.224 28.688 16.037 28.512 15.795 28.495C15.663 28.48 15.545 28.548 15.435 28.612C15.4 28.574 15.361 28.539 15.322 28.504C15.245 28.434 15.167 28.364 15.124 28.27C15.517 27.866 16.052 27.584 16.62 27.549Z" fill="#001A3A"/>
    </g>
    <defs>
    <clipPath id="clip0_0_155">
    <rect width="34" height="34" fill="white"/>
    </clipPath>
    </defs>
  </symbol>

  <symbol id="partner-6">
    <path d="M31.933 23.8229C33.503 23.6469 34.59 23.0089 35.181 22.4129C35.718 21.8709 35.851 21.1389 35.851 20.5829C35.879 19.7689 35.851 17.2199 35.851 17.2199L31.704 18.1289V19.1049C31.718 19.7549 32.027 20.1079 32.698 19.9859C32.912 19.9459 33.234 19.8499 33.234 19.8499V20.6499C33.234 20.6229 33.302 21.0979 32.254 21.3009C30.886 21.5179 30.268 20.6639 30.254 19.1589C30.282 17.5459 31.181 16.6239 32.282 16.3659C33.516 16.0809 34.214 16.3799 34.617 16.4339C35.986 16.6369 36.375 14.5629 35.127 14.0739C34.201 13.6949 33.007 13.6269 31.865 13.8579C30.335 14.1689 27.342 15.4579 27.329 19.6479C27.315 22.9819 29.745 24.0679 31.933 23.8229ZM18.443 27.3889C18.443 27.3889 19.718 26.9419 19.825 26.9139C20.845 26.5619 21.221 25.9379 21.221 24.8809C21.208 23.7279 21.208 21.4769 21.208 21.4769L24.174 24.9209C24.657 25.4229 25.261 25.4639 25.812 25.3009C26.375 25.1379 26.858 24.6099 26.872 23.8639V15.3079C26.872 15.3079 26.107 15.4709 25.476 15.6479C24.751 15.8509 24.188 16.3249 24.188 17.5729V20.5419C24.188 20.5419 22.496 18.4129 21.409 17.3149C20.832 16.7319 19.866 17.0849 19.866 17.0849L18.443 17.5179V27.3879V27.3889ZM17.543 17.7359C17.543 17.7359 16.657 17.9929 15.933 18.2639C14.993 18.6039 14.443 19.1589 14.443 20.5959V28.7999C14.443 28.7999 15.262 28.5159 16.04 28.2169C17.127 27.7969 17.543 27.2269 17.543 26.0749V17.7369V17.7359ZM13.127 19.6879C12.8162 19.5334 12.4593 19.4992 12.1248 19.5918C11.7904 19.6845 11.5019 19.8975 11.315 20.1899L8.80501 24.5149V21.0299L5.82501 22.2639L5.81201 32.1079L7.90601 31.2259C7.90601 31.2259 8.32201 31.1039 8.56401 30.7109C8.79201 30.3449 8.77801 29.7479 8.77801 29.7479V26.6299L11.114 29.1379C11.624 29.6809 12.564 29.9519 13.395 29.2739C14.147 28.6639 14.026 27.6199 13.61 27.1449L11.49 24.9899C11.49 24.9899 13.355 22.0069 13.664 21.5189C14.066 20.8409 13.865 20.0269 13.127 19.6889V19.6879ZM11.96 31.2679C11.852 31.5249 12.107 31.7829 12.107 31.7829C13.181 33.1529 17.973 34.8879 23.181 33.6129C31.128 31.6739 32.805 25.9929 32.993 25.1929C33.033 25.0299 33.06 24.7729 32.913 24.6099C32.792 24.4739 32.604 24.4739 32.363 24.5289C26.833 25.8439 17.665 28.6779 12.363 30.9689C12.134 31.0639 12.04 31.1049 11.96 31.2679ZM7.24801 18.3589C7.23501 17.8169 6.81801 17.5189 6.10801 17.8839V19.6339C6.10801 19.6339 6.33501 19.5239 6.51001 19.4439C6.94001 19.2399 7.26201 18.8879 7.24801 18.3589ZM6.09401 16.7729C6.22801 16.7179 6.32201 16.6779 6.42901 16.6229C6.81901 16.4329 7.10001 16.0679 7.10001 15.6069C7.10001 15.0769 6.67101 14.9419 6.09401 15.2409V16.7729ZM9.15401 18.1009C9.18101 19.4839 8.20101 20.2159 6.91301 20.7449L4.29501 21.8699V14.6979C4.29501 14.6979 5.94601 14.0199 6.48301 13.8169C8.01301 13.2469 8.91301 13.9389 8.91301 14.9689C8.91301 15.6609 8.61701 16.2439 7.98601 16.7589C8.60401 16.8669 9.14101 17.3829 9.15401 18.1009ZM14.12 12.0529C14.12 11.4429 13.704 11.2939 13.207 11.4299C12.805 11.5519 12.335 11.7279 12.335 11.7279V16.1879C12.335 16.6359 12.268 17.1919 11.717 17.3279C11.301 17.4359 11.1 17.1509 11.1 16.7039V13.0569C11.1 12.4469 10.684 12.2699 10.187 12.4329C9.62401 12.6229 9.30101 12.7579 9.30101 12.7579V17.1779C9.28801 18.6559 10.308 19.4019 11.838 18.9409C13.194 18.5339 14.106 17.7609 14.12 15.7959V12.0529ZM28.698 13.8979C29.087 13.8159 29.328 13.5319 29.328 13.0439V12.2709L27.208 12.7449V11.4849C27.208 11.4849 28.255 11.2679 28.537 11.1999C28.899 11.1179 29.087 10.9149 29.087 10.4949V9.76294L27.207 10.1689V9.16594L28.711 8.85394C29.127 8.77294 29.261 8.48794 29.261 8.09394V7.33594C28.322 7.49794 26.537 7.86394 25.423 8.12194L25.409 14.6569C25.409 14.6569 27.53 14.1549 28.698 13.8969V13.8979ZM16.403 13.6269C16.403 13.6269 17.45 13.0709 17.45 12.2029C17.436 11.4579 16.765 11.6199 16.416 11.7559L16.403 13.6259V13.6269ZM16.416 14.6439V16.4059C16.416 16.8809 16.094 17.2199 15.691 17.3829C15.691 17.3959 15.691 17.3689 15.691 17.3829C15.356 17.5049 14.631 17.7489 14.631 17.7489V11.0099C14.631 11.0099 16.121 10.4809 16.993 10.2779C18.335 9.95294 19.302 10.5759 19.288 11.6879C19.275 12.7449 18.698 13.3829 18.174 13.8299L19.329 14.9419C19.5045 15.1249 19.6014 15.3693 19.5987 15.6228C19.5961 15.8763 19.4943 16.1187 19.315 16.2979C19.073 16.5279 18.443 16.7579 17.959 16.2439C17.946 16.2439 16.416 14.6439 16.416 14.6439ZM31.463 10.0069C31.463 10.0069 32.496 9.61294 32.483 8.77294C32.47 8.06794 31.785 8.18994 31.45 8.27094L31.463 10.0069ZM29.718 13.6939V7.24094C29.718 7.24094 31.584 6.90094 32.067 6.84694C33.409 6.67094 34.308 7.42994 34.282 8.48794C34.268 9.42394 33.691 9.99294 33.194 10.3319C33.194 10.3319 34.107 11.3619 34.349 11.6469C34.671 12.0129 34.657 12.6499 34.174 12.9619C33.9867 13.0913 33.7579 13.1464 33.5323 13.1164C33.3066 13.0865 33.1001 12.9737 32.953 12.7999L31.463 11.0099V12.5829C31.463 13.0569 31.181 13.4099 30.698 13.5049L29.718 13.6949V13.6939Z" fill="#001A3A"/>
  </symbol>

  <symbol id="partner-7">
    <path d="M17.482 34.998C7.848 34.998 0 27.189 0 17.498C0 7.847 7.848 0 17.482 0C27.116 0 34.964 7.846 34.964 17.499C34.964 27.189 27.116 34.998 17.482 34.998ZM17.482 0.828C8.28 0.828 0.827 8.288 0.827 17.498C0.827 26.709 8.29 34.17 17.491 34.17C26.693 34.17 34.146 26.71 34.146 17.499C34.136 8.335 26.683 0.828 17.482 0.828ZM32.294 22.485C32.284 22.504 32.257 22.523 32.21 22.504C32.172 22.485 32.153 22.466 32.153 22.438C32.153 22.41 32.736 20.688 32.736 18.703C32.726 16.567 31.862 15.26 30.753 15.26C30.076 15.26 29.587 15.749 29.587 16.473C29.587 17.781 31.185 17.885 31.185 20.744C31.185 21.911 30.941 23.021 30.555 24.234C28.76 30.294 23.045 33.107 17.482 33.107C14.916 33.107 13.092 32.58 12.547 32.335C12.529 32.325 12.51 32.279 12.529 32.241C12.538 32.213 12.576 32.185 12.604 32.194C12.82 32.279 14.39 32.777 16.326 32.777C18.459 32.777 19.719 31.902 19.719 30.839C19.719 30.162 19.192 29.626 18.506 29.626C17.2 29.626 17.096 31.272 14.296 31.272C13.083 31.272 12.021 31.027 10.762 30.642C4.746 28.788 1.88 23.125 1.889 17.499C1.889 14.761 2.659 12.579 2.669 12.559C2.679 12.541 2.716 12.531 2.754 12.541C2.801 12.56 2.81 12.597 2.801 12.607C2.41952 13.8121 2.22295 15.068 2.218 16.332C2.218 18.468 3.092 19.728 4.201 19.728C4.831 19.728 5.367 19.248 5.367 18.562C5.367 17.254 3.769 17.104 3.769 14.291C3.769 13.077 4.013 12.014 4.399 10.753C6.25 4.751 11.918 1.93 17.482 1.891C20.066 1.872 22.332 2.644 22.416 2.719C22.435 2.729 22.444 2.766 22.435 2.804C22.416 2.851 22.388 2.851 22.369 2.851C22.341 2.851 20.865 2.23 18.638 2.23C16.551 2.23 15.245 3.105 15.245 4.215C15.245 4.845 15.725 5.372 16.457 5.372C17.764 5.372 17.857 3.772 20.667 3.772C21.88 3.772 22.942 4.017 24.202 4.402C30.255 6.247 33.009 11.967 33.065 17.489C33.103 20.331 32.304 22.476 32.295 22.485H32.294ZM23.967 18.327C22.322 18.327 21.063 19.54 21.063 20.989C21.063 22.203 21.786 23.172 22.755 23.172C23.093 23.172 23.431 22.974 23.431 22.542C23.431 21.912 22.595 21.761 22.661 20.81C22.698 20.19 23.291 19.776 23.863 19.776C25.029 19.776 25.565 20.904 25.565 22.062C25.518 23.858 24.202 25.1 22.651 25.1C20.621 25.1 19.305 23.162 19.305 21.074C19.305 17.969 21.335 16.755 22.407 16.464C22.417 16.464 25.189 16.962 25.104 15.73C25.067 15.194 24.268 14.987 23.685 14.959C23.036 14.93 22.397 15.166 22.397 15.166C22.059 14.996 21.824 14.658 21.683 14.272C23.666 12.767 25.076 11.318 25.076 9.672C25.076 8.796 24.493 8.025 23.384 8.025C21.401 8.025 19.897 10.546 19.897 12.823C19.897 13.209 19.897 13.594 19.991 13.943C18.731 14.865 17.791 15.438 16.101 16.454C16.101 16.238 16.147 15.692 16.288 14.987C16.871 14.357 17.67 13.407 17.67 12.682C17.67 12.343 17.472 12.052 17.087 12.052C16.119 12.052 15.395 13.51 15.197 14.526C14.766 15.062 13.891 15.739 13.167 15.739C12.585 15.739 12.397 15.203 12.341 15.015C14.183 14.385 16.457 11.863 16.457 9.587C16.457 9.107 16.26 8.034 14.812 8.034C12.632 8.034 10.79 11.28 10.79 13.802C10.01 13.802 9.728 12.974 9.728 12.352C9.728 11.722 9.972 11.092 9.972 10.894C9.972 10.697 9.878 10.462 9.587 10.462C8.863 10.462 8.421 11.431 8.421 12.541C8.468 14.093 9.483 15.062 10.846 15.156C11.044 16.078 11.861 16.953 12.876 16.953C13.506 16.953 14.276 16.756 14.813 16.276C14.765 16.614 14.718 16.906 14.663 17.198C12.538 18.327 10.997 19.098 9.587 20.358C8.477 21.375 7.848 22.73 7.848 23.802C7.848 25.26 8.769 26.615 10.658 26.615C12.886 26.615 14.578 24.818 15.405 22.353C15.79 21.187 15.95 19.493 16.044 17.941C18.271 16.681 19.324 15.947 20.489 15.128C20.63 15.373 20.781 15.561 20.979 15.711C19.963 16.247 17.539 17.743 17.539 21.291C17.539 23.811 19.229 26.625 22.576 26.625C25.339 26.625 27.228 24.348 27.228 22.165C27.218 20.171 26.1 18.327 23.967 18.327ZM10.658 25.11C9.935 25.147 9.446 24.677 9.446 23.906C9.446 21.817 12.331 19.832 14.512 18.769C14.126 21.676 13.139 24.997 10.658 25.109V25.11ZM12.256 13.67C12.256 12.07 13.835 9.032 14.794 9.351C15.931 9.728 13.854 12.795 12.256 13.67ZM21.401 12.945C21.401 10.96 22.745 9.022 23.478 9.389C24.315 9.803 22.858 11.675 21.401 12.945Z" fill="#001A3A"/>
  </symbol> -->


</svg>